<svg xmlns="http://www.w3.org/2000/svg" width="1920" height="1080"><path d="M461,1312L85,1345L855,1340Z" fill="#7e6ded" stroke="#7e6ded" stroke-width="1.51"/><path d="M419,-260L637,-250L1133,-253Z" fill="#b48279" stroke="#b48279" stroke-width="1.51"/><path d="M1133,-253L1285,-213L1688,-239Z" fill="#c85383" stroke="#c85383" stroke-width="1.51"/><path d="M1391,1307L855,1340L1949,1331Z" fill="#a649ea" stroke="#a649ea" stroke-width="1.51"/><path d="M1819,1279L1624,1265L1949,1331Z" fill="#a311f2" stroke="#a311f2" stroke-width="1.51"/><path d="M1624,1265L1391,1307L1949,1331Z" fill="#a910ef" stroke="#a910ef" stroke-width="1.51"/><path d="M1887,979L2077,1036L2107,826Z" fill="#ae16eb" stroke="#ae16eb" stroke-width="1.51"/><path d="M1942,796L1887,979L2107,826Z" fill="#ac40e8" stroke="#ac40e8" stroke-width="1.51"/><path d="M2077,1036L2093,1155L2107,826Z" fill="#a810ef" stroke="#a810ef" stroke-width="1.51"/><path d="M2093,1155L2096,1312L2107,826Z" fill="#a311f3" stroke="#a311f3" stroke-width="1.51"/><path d="M419,-260L1133,-253L2114,-261Z" fill="#c56b79" stroke="#c56b79" stroke-width="1.51"/><path d="M1688,-239L1974,-245L2114,-261Z" fill="#c8108d" stroke="#c8108d" stroke-width="1.51"/><path d="M1133,-253L1688,-239L2114,-261Z" fill="#ce1386" stroke="#ce1386" stroke-width="1.51"/><path d="M1974,-245L2062,-90L2114,-261Z" fill="#bf269c" stroke="#bf269c" stroke-width="1.51"/><path d="M2062,-90L2082,71L2114,-261Z" fill="#b040b7" stroke="#b040b7" stroke-width="1.51"/><path d="M2091,273L1966,370L2140,350Z" fill="#877be7" stroke="#877be7" stroke-width="1.51"/><path d="M1966,370L2057,578L2140,350Z" fill="#8c86e3" stroke="#8c86e3" stroke-width="1.51"/><path d="M2063,660L2107,826L2140,350Z" fill="#9683e3" stroke="#9683e3" stroke-width="1.51"/><path d="M2057,578L2063,660L2140,350Z" fill="#8f91e1" stroke="#8f91e1" stroke-width="1.51"/><path d="M2107,826L2096,1312L2140,350Z" fill="#a54cea" stroke="#a54cea" stroke-width="1.51"/><path d="M2114,-261L2082,71L2140,350Z" fill="#915adc" stroke="#915adc" stroke-width="1.51"/><path d="M2082,71L2091,273L2140,350Z" fill="#8170ec" stroke="#8170ec" stroke-width="1.51"/><path d="M1969,667L1942,796L2063,660Z" fill="#a26ee4" stroke="#a26ee4" stroke-width="1.51"/><path d="M2062,-90L1974,59L2082,71Z" fill="#9d54d0" stroke="#9d54d0" stroke-width="1.51"/><path d="M2082,71L1974,59L2091,273Z" fill="#7e65ed" stroke="#7e65ed" stroke-width="1.51"/><path d="M1974,59L1880,289L2091,273Z" fill="#856ee9" stroke="#856ee9" stroke-width="1.51"/><path d="M1948,1117L1949,1331L2093,1155Z" fill="#a111f4" stroke="#a111f4" stroke-width="1.51"/><path d="M2093,1155L1949,1331L2096,1312Z" fill="#9c12f7" stroke="#9c12f7" stroke-width="1.51"/><path d="M2063,660L1942,796L2107,826Z" fill="#a460e6" stroke="#a460e6" stroke-width="1.51"/><path d="M1966,370L1884,496L2057,578Z" fill="#928cdf" stroke="#928cdf" stroke-width="1.51"/><path d="M1942,-49L1974,59L2062,-90Z" fill="#a74dc5" stroke="#a74dc5" stroke-width="1.51"/><path d="M2077,1036L1948,1117L2093,1155Z" fill="#a511f1" stroke="#a511f1" stroke-width="1.51"/><path d="M1880,289L1966,370L2091,273Z" fill="#8b7ae6" stroke="#8b7ae6" stroke-width="1.51"/><path d="M1974,-245L1942,-49L2062,-90Z" fill="#b839ac" stroke="#b839ac" stroke-width="1.51"/><path d="M1887,979L1948,1117L2077,1036Z" fill="#aa10ed" stroke="#aa10ed" stroke-width="1.51"/><path d="M2057,578L1969,667L2063,660Z" fill="#9b7ee2" stroke="#9b7ee2" stroke-width="1.51"/><path d="M1884,496L1969,667L2057,578Z" fill="#988adf" stroke="#988adf" stroke-width="1.51"/><path d="M1800,525L1831,708L1884,496Z" fill="#9c8cdb" stroke="#9c8cdb" stroke-width="1.51"/><path d="M1948,1117L1819,1279L1949,1331Z" fill="#a211f3" stroke="#a211f3" stroke-width="1.51"/><path d="M1824,431L1884,496L1966,370Z" fill="#9387df" stroke="#9387df" stroke-width="1.51"/><path d="M1831,708L1942,796L1969,667Z" fill="#a66ae2" stroke="#a66ae2" stroke-width="1.51"/><path d="M1884,496L1831,708L1969,667Z" fill="#9f82de" stroke="#9f82de" stroke-width="1.51"/><path d="M1688,-239L1817,-178L1974,-245Z" fill="#c71f92" stroke="#c71f92" stroke-width="1.51"/><path d="M1817,-178L1942,-49L1974,-245Z" fill="#be32a3" stroke="#be32a3" stroke-width="1.51"/><path d="M1736,197L1880,289L1974,59Z" fill="#886ce7" stroke="#886ce7" stroke-width="1.51"/><path d="M1764,41L1736,197L1974,59Z" fill="#9062e0" stroke="#9062e0" stroke-width="1.51"/><path d="M1942,-49L1783,-15L1974,59Z" fill="#a552c9" stroke="#a552c9" stroke-width="1.51"/><path d="M1783,-15L1764,41L1974,59Z" fill="#a057cf" stroke="#a057cf" stroke-width="1.51"/><path d="M1769,820L1887,979L1942,796Z" fill="#af41e5" stroke="#af41e5" stroke-width="1.51"/><path d="M1795,1095L1819,1279L1948,1117Z" fill="#a910ef" stroke="#a910ef" stroke-width="1.51"/><path d="M1880,289L1824,431L1966,370Z" fill="#9080e1" stroke="#9080e1" stroke-width="1.51"/><path d="M1769,820L1781,958L1887,979Z" fill="#b32ae6" stroke="#b32ae6" stroke-width="1.51"/><path d="M1817,-178L1783,-15L1942,-49Z" fill="#b444b4" stroke="#b444b4" stroke-width="1.51"/><path d="M1887,979L1795,1095L1948,1117Z" fill="#ad10ec" stroke="#ad10ec" stroke-width="1.51"/><path d="M1831,708L1769,820L1942,796Z" fill="#ac5de2" stroke="#ac5de2" stroke-width="1.51"/><path d="M1781,958L1795,1095L1887,979Z" fill="#b210e8" stroke="#b210e8" stroke-width="1.51"/><path d="M1736,197L1824,431L1880,289Z" fill="#917ae2" stroke="#917ae2" stroke-width="1.51"/><path d="M1824,431L1800,525L1884,496Z" fill="#978ddc" stroke="#978ddc" stroke-width="1.51"/><path d="M1171,1268L855,1340L1391,1307Z" fill="#9c78e5" stroke="#9c78e5" stroke-width="1.51"/><path d="M1610,1135L1624,1265L1795,1095Z" fill="#af10ea" stroke="#af10ea" stroke-width="1.51"/><path d="M1688,-239L1783,-15L1817,-178Z" fill="#bf37a2" stroke="#bf37a2" stroke-width="1.51"/><path d="M1795,1095L1624,1265L1819,1279Z" fill="#aa10ee" stroke="#aa10ee" stroke-width="1.51"/><path d="M1736,197L1637,231L1824,431Z" fill="#9379e1" stroke="#9379e1" stroke-width="1.51"/><path d="M1637,231L1595,395L1824,431Z" fill="#9880dd" stroke="#9880dd" stroke-width="1.51"/><path d="M1679,730L1769,820L1831,708Z" fill="#ad63df" stroke="#ad63df" stroke-width="1.51"/><path d="M1800,525L1651,569L1831,708Z" fill="#a287da" stroke="#a287da" stroke-width="1.51"/><path d="M1651,569L1679,730L1831,708Z" fill="#a979db" stroke="#a979db" stroke-width="1.51"/><path d="M1595,395L1800,525L1824,431Z" fill="#998adb" stroke="#998adb" stroke-width="1.51"/><path d="M1769,820L1676,864L1781,958Z" fill="#b43ce3" stroke="#b43ce3" stroke-width="1.51"/><path d="M1688,-239L1592,-24L1783,-15Z" fill="#ba42ad" stroke="#ba42ad" stroke-width="1.51"/><path d="M1595,395L1651,569L1800,525Z" fill="#9d90d8" stroke="#9d90d8" stroke-width="1.51"/><path d="M1781,958L1667,948L1795,1095Z" fill="#b510e6" stroke="#b510e6" stroke-width="1.51"/><path d="M1667,948L1610,1135L1795,1095Z" fill="#b410e7" stroke="#b410e7" stroke-width="1.51"/><path d="M1676,864L1667,948L1781,958Z" fill="#b728e3" stroke="#b728e3" stroke-width="1.51"/><path d="M1285,-213L1428,-157L1688,-239Z" fill="#c8438d" stroke="#c8438d" stroke-width="1.51"/><path d="M1591,118L1736,197L1764,41Z" fill="#8f65e2" stroke="#8f65e2" stroke-width="1.51"/><path d="M1592,-24L1764,41L1783,-15Z" fill="#aa53c5" stroke="#aa53c5" stroke-width="1.51"/><path d="M1679,730L1676,864L1769,820Z" fill="#b256df" stroke="#b256df" stroke-width="1.51"/><path d="M1592,-24L1591,118L1764,41Z" fill="#a35ace" stroke="#a35ace" stroke-width="1.51"/><path d="M1591,118L1637,231L1736,197Z" fill="#916de2" stroke="#916de2" stroke-width="1.51"/><path d="M1428,-157L1531,-27L1592,-24Z" fill="#b951af" stroke="#b951af" stroke-width="1.51"/><path d="M1595,395L1506,511L1651,569Z" fill="#a090d5" stroke="#a090d5" stroke-width="1.51"/><path d="M1480,1011L1610,1135L1667,948Z" fill="#b910e3" stroke="#b910e3" stroke-width="1.51"/><path d="M1651,569L1493,688L1679,730Z" fill="#ac7ad8" stroke="#ac7ad8" stroke-width="1.51"/><path d="M1492,867L1676,864L1679,730Z" fill="#b552de" stroke="#b552de" stroke-width="1.51"/><path d="M1493,688L1492,867L1679,730Z" fill="#b464da" stroke="#b464da" stroke-width="1.51"/><path d="M1428,-157L1592,-24L1688,-239Z" fill="#c3399f" stroke="#c3399f" stroke-width="1.51"/><path d="M1480,1011L1528,1125L1610,1135Z" fill="#b61ee5" stroke="#b61ee5" stroke-width="1.51"/><path d="M1461,1243L1391,1307L1624,1265Z" fill="#ac31ea" stroke="#ac31ea" stroke-width="1.51"/><path d="M1492,867L1667,948L1676,864Z" fill="#b937e0" stroke="#b937e0" stroke-width="1.51"/><path d="M1492,867L1480,1011L1667,948Z" fill="#bc22df" stroke="#bc22df" stroke-width="1.51"/><path d="M1437,200L1595,395L1637,231Z" fill="#9978dc" stroke="#9978dc" stroke-width="1.51"/><path d="M1506,511L1493,688L1651,569Z" fill="#a78cd4" stroke="#a78cd4" stroke-width="1.51"/><path d="M1437,200L1457,406L1595,395Z" fill="#9888d8" stroke="#9888d8" stroke-width="1.51"/><path d="M1610,1135L1528,1125L1624,1265Z" fill="#b110e8" stroke="#b110e8" stroke-width="1.51"/><path d="M1528,1125L1461,1243L1624,1265Z" fill="#b01ee9" stroke="#b01ee9" stroke-width="1.51"/><path d="M1591,118L1508,128L1637,231Z" fill="#936be1" stroke="#936be1" stroke-width="1.51"/><path d="M1508,128L1437,200L1637,231Z" fill="#9373df" stroke="#9373df" stroke-width="1.51"/><path d="M1531,-27L1591,118L1592,-24Z" fill="#aa57c7" stroke="#aa57c7" stroke-width="1.51"/><path d="M1531,-27L1508,128L1591,118Z" fill="#9f62d3" stroke="#9f62d3" stroke-width="1.51"/><path d="M1457,406L1506,511L1595,395Z" fill="#9d90d5" stroke="#9d90d5" stroke-width="1.51"/><path d="M637,-250L888,-205L1133,-253Z" fill="#b49079" stroke="#b49079" stroke-width="1.51"/><path d="M1437,200L1380,363L1457,406Z" fill="#9291d7" stroke="#9291d7" stroke-width="1.51"/><path d="M1380,796L1492,867L1493,688Z" fill="#b16fd9" stroke="#b16fd9" stroke-width="1.51"/><path d="M1305,566L1493,688L1506,511Z" fill="#9f9dd1" stroke="#9f9dd1" stroke-width="1.51"/><path d="M1480,1011L1350,1136L1528,1125Z" fill="#b43ce3" stroke="#b43ce3" stroke-width="1.51"/><path d="M1350,1136L1461,1243L1528,1125Z" fill="#b03ee6" stroke="#b03ee6" stroke-width="1.51"/><path d="M1428,-157L1387,-87L1531,-27Z" fill="#b95aa8" stroke="#b95aa8" stroke-width="1.51"/><path d="M1352,87L1508,128L1531,-27Z" fill="#9e6ecf" stroke="#9e6ecf" stroke-width="1.51"/><path d="M1387,-87L1352,87L1531,-27Z" fill="#aa6bbb" stroke="#aa6bbb" stroke-width="1.51"/><path d="M1352,994L1480,1011L1492,867Z" fill="#ba41de" stroke="#ba41de" stroke-width="1.51"/><path d="M1352,87L1437,200L1508,128Z" fill="#8c7cde" stroke="#8c7cde" stroke-width="1.51"/><path d="M1457,406L1305,566L1506,511Z" fill="#96a3d1" stroke="#96a3d1" stroke-width="1.51"/><path d="M1352,994L1350,1136L1480,1011Z" fill="#b44be0" stroke="#b44be0" stroke-width="1.51"/><path d="M1380,796L1352,994L1492,867Z" fill="#b55ddb" stroke="#b55ddb" stroke-width="1.51"/><path d="M1301,718L1380,796L1493,688Z" fill="#aa85d6" stroke="#aa85d6" stroke-width="1.51"/><path d="M1305,566L1301,718L1493,688Z" fill="#a198d2" stroke="#a198d2" stroke-width="1.51"/><path d="M1380,363L1305,566L1457,406Z" fill="#92a4d2" stroke="#92a4d2" stroke-width="1.51"/><path d="M1290,211L1380,363L1437,200Z" fill="#8b91d9" stroke="#8b91d9" stroke-width="1.51"/><path d="M1350,1136L1391,1307L1461,1243Z" fill="#ab49e7" stroke="#ab49e7" stroke-width="1.51"/><path d="M1352,87L1290,211L1437,200Z" fill="#8789db" stroke="#8789db" stroke-width="1.51"/><path d="M1285,-213L1387,-87L1428,-157Z" fill="#be6097" stroke="#be6097" stroke-width="1.51"/><path d="M1231,1088L1350,1136L1352,994Z" fill="#b05cdf" stroke="#b05cdf" stroke-width="1.51"/><path d="M1140,385L1305,566L1380,363Z" fill="#87b1d0" stroke="#87b1d0" stroke-width="1.51"/><path d="M1176,859L1352,994L1380,796Z" fill="#b071d9" stroke="#b071d9" stroke-width="1.51"/><path d="M1177,-87L1352,87L1387,-87Z" fill="#a87ab4" stroke="#a87ab4" stroke-width="1.51"/><path d="M1350,1136L1171,1268L1391,1307Z" fill="#a75ce5" stroke="#a75ce5" stroke-width="1.51"/><path d="M1285,-213L1177,-87L1387,-87Z" fill="#b8729b" stroke="#b8729b" stroke-width="1.51"/><path d="M1177,-87L1240,124L1352,87Z" fill="#9689c4" stroke="#9689c4" stroke-width="1.51"/><path d="M1290,211L1174,239L1380,363Z" fill="#849fd6" stroke="#849fd6" stroke-width="1.51"/><path d="M1174,239L1140,385L1380,363Z" fill="#80abd2" stroke="#80abd2" stroke-width="1.51"/><path d="M1301,718L1176,859L1380,796Z" fill="#a988d5" stroke="#a988d5" stroke-width="1.51"/><path d="M1226,711L1176,859L1301,718Z" fill="#a395d3" stroke="#a395d3" stroke-width="1.51"/><path d="M1226,711L1301,718L1305,566Z" fill="#9ba3d1" stroke="#9ba3d1" stroke-width="1.51"/><path d="M1231,1088L1171,1268L1350,1136Z" fill="#a967e1" stroke="#a967e1" stroke-width="1.51"/><path d="M1240,124L1290,211L1352,87Z" fill="#8190da" stroke="#8190da" stroke-width="1.51"/><path d="M1158,983L1231,1088L1352,994Z" fill="#b068dc" stroke="#b068dc" stroke-width="1.51"/><path d="M1176,859L1158,983L1352,994Z" fill="#b16ed9" stroke="#b16ed9" stroke-width="1.51"/><path d="M1037,1248L855,1340L1171,1268Z" fill="#9589e1" stroke="#9589e1" stroke-width="1.51"/><path d="M1136,589L1226,711L1305,566Z" fill="#90b3cd" stroke="#90b3cd" stroke-width="1.51"/><path d="M1140,385L1136,589L1305,566Z" fill="#7ec3ca" stroke="#7ec3ca" stroke-width="1.51"/><path d="M1133,-253L1177,-87L1285,-213Z" fill="#bb788b" stroke="#bb788b" stroke-width="1.51"/><path d="M1240,124L1174,239L1290,211Z" fill="#7e9dd8" stroke="#7e9dd8" stroke-width="1.51"/><path d="M1057,493L1136,589L1140,385Z" fill="#72cbc9" stroke="#72cbc9" stroke-width="1.51"/><path d="M1037,1248L1171,1268L1231,1088Z" fill="#a277e0" stroke="#a277e0" stroke-width="1.51"/><path d="M980,1132L1037,1248L1231,1088Z" fill="#a081dd" stroke="#a081dd" stroke-width="1.51"/><path d="M1177,-87L1053,88L1240,124Z" fill="#8f97c2" stroke="#8f97c2" stroke-width="1.51"/><path d="M1053,88L1174,239L1240,124Z" fill="#74a3d7" stroke="#74a3d7" stroke-width="1.51"/><path d="M1084,879L1176,859L1226,711Z" fill="#a395d3" stroke="#a395d3" stroke-width="1.51"/><path d="M1158,983L980,1132L1231,1088Z" fill="#a77cdb" stroke="#a77cdb" stroke-width="1.51"/><path d="M1136,589L1009,637L1226,711Z" fill="#89bbcc" stroke="#89bbcc" stroke-width="1.51"/><path d="M1009,637L1084,879L1226,711Z" fill="#96abcf" stroke="#96abcf" stroke-width="1.51"/><path d="M888,-205L1039,-199L1133,-253Z" fill="#b68e7d" stroke="#b68e7d" stroke-width="1.51"/><path d="M1081,960L980,1132L1158,983Z" fill="#a684d8" stroke="#a684d8" stroke-width="1.51"/><path d="M1084,879L1081,960L1158,983Z" fill="#ab82d6" stroke="#ab82d6" stroke-width="1.51"/><path d="M1025,228L1140,385L1174,239Z" fill="#71b6d1" stroke="#71b6d1" stroke-width="1.51"/><path d="M1053,88L1025,228L1174,239Z" fill="#6cafd4" stroke="#6cafd4" stroke-width="1.51"/><path d="M1084,879L1158,983L1176,859Z" fill="#a985d6" stroke="#a985d6" stroke-width="1.51"/><path d="M1015,-108L1053,88L1177,-87Z" fill="#9b99ac" stroke="#9b99ac" stroke-width="1.51"/><path d="M1133,-253L1039,-199L1177,-87Z" fill="#b68589" stroke="#b68589" stroke-width="1.51"/><path d="M1039,-199L1015,-108L1177,-87Z" fill="#ac9094" stroke="#ac9094" stroke-width="1.51"/><path d="M1025,228L1029,401L1140,385Z" fill="#6bc1ce" stroke="#6bc1ce" stroke-width="1.51"/><path d="M1029,401L1057,493L1140,385Z" fill="#6cc9ca" stroke="#6cc9ca" stroke-width="1.51"/><path d="M1009,637L890,724L1084,879Z" fill="#8bb9cc" stroke="#8bb9cc" stroke-width="1.51"/><path d="M890,724L908,847L1084,879Z" fill="#92b0ce" stroke="#92b0ce" stroke-width="1.51"/><path d="M1057,493L1009,637L1136,589Z" fill="#72d0c7" stroke="#72d0c7" stroke-width="1.51"/><path d="M637,-250L720,-209L888,-205Z" fill="#b08681" stroke="#b08681" stroke-width="1.51"/><path d="M888,937L910,1114L980,1132Z" fill="#9c91d8" stroke="#9c91d8" stroke-width="1.51"/><path d="M1015,-108L831,-4L1053,88Z" fill="#8aabb0" stroke="#8aabb0" stroke-width="1.51"/><path d="M888,937L980,1132L1081,960Z" fill="#a191d5" stroke="#a191d5" stroke-width="1.51"/><path d="M888,937L1081,960L1084,879Z" fill="#a493d3" stroke="#a493d3" stroke-width="1.51"/><path d="M908,847L888,937L1084,879Z" fill="#9ba2d0" stroke="#9ba2d0" stroke-width="1.51"/><path d="M831,-4L893,117L1053,88Z" fill="#72b1c4" stroke="#72b1c4" stroke-width="1.51"/><path d="M922,511L1009,637L1057,493Z" fill="#5cddc4" stroke="#5cddc4" stroke-width="1.51"/><path d="M1025,228L843,355L1029,401Z" fill="#57cdcb" stroke="#57cdcb" stroke-width="1.51"/><path d="M923,191L1025,228L1053,88Z" fill="#5eb8d3" stroke="#5eb8d3" stroke-width="1.51"/><path d="M893,117L923,191L1053,88Z" fill="#57b9d3" stroke="#57b9d3" stroke-width="1.51"/><path d="M1029,401L922,511L1057,493Z" fill="#5dd6c7" stroke="#5dd6c7" stroke-width="1.51"/><path d="M738,1288L461,1312L855,1340Z" fill="#887ee7" stroke="#887ee7" stroke-width="1.51"/><path d="M923,191L843,355L1025,228Z" fill="#57c4cf" stroke="#57c4cf" stroke-width="1.51"/><path d="M888,-205L1015,-108L1039,-199Z" fill="#ac9987" stroke="#ac9987" stroke-width="1.51"/><path d="M910,1114L855,1340L980,1132Z" fill="#9590dd" stroke="#9590dd" stroke-width="1.51"/><path d="M980,1132L855,1340L1037,1248Z" fill="#9492de" stroke="#9492de" stroke-width="1.51"/><path d="M843,355L922,511L1029,401Z" fill="#55d5c8" stroke="#55d5c8" stroke-width="1.51"/><path d="M888,-205L831,-4L1015,-108Z" fill="#9f9e99" stroke="#9f9e99" stroke-width="1.51"/><path d="M585,1275L461,1312L738,1288Z" fill="#8677e8" stroke="#8677e8" stroke-width="1.51"/><path d="M922,511L890,724L1009,637Z" fill="#6dd2c6" stroke="#6dd2c6" stroke-width="1.51"/><path d="M777,-87L831,-4L888,-205Z" fill="#9d999d" stroke="#9d999d" stroke-width="1.51"/><path d="M761,1158L738,1288L855,1340Z" fill="#8e85e2" stroke="#8e85e2" stroke-width="1.51"/><path d="M778,494L727,738L890,724Z" fill="#74c3cc" stroke="#74c3cc" stroke-width="1.51"/><path d="M890,724L759,818L908,847Z" fill="#8eaccf" stroke="#8eaccf" stroke-width="1.51"/><path d="M761,1158L855,1340L910,1114Z" fill="#938adf" stroke="#938adf" stroke-width="1.51"/><path d="M888,937L774,999L910,1114Z" fill="#9d8dd8" stroke="#9d8dd8" stroke-width="1.51"/><path d="M778,494L890,724L922,511Z" fill="#5fd6c7" stroke="#5fd6c7" stroke-width="1.51"/><path d="M843,355L778,494L922,511Z" fill="#55d2c9" stroke="#55d2c9" stroke-width="1.51"/><path d="M893,117L740,292L923,191Z" fill="#57b9d3" stroke="#57b9d3" stroke-width="1.51"/><path d="M740,292L843,355L923,191Z" fill="#57c0d0" stroke="#57c0d0" stroke-width="1.51"/><path d="M727,82L740,292L893,117Z" fill="#56b1d6" stroke="#56b1d6" stroke-width="1.51"/><path d="M759,818L888,937L908,847Z" fill="#979ed2" stroke="#979ed2" stroke-width="1.51"/><path d="M774,999L761,1158L910,1114Z" fill="#9889dc" stroke="#9889dc" stroke-width="1.51"/><path d="M759,818L774,999L888,937Z" fill="#9c91d5" stroke="#9c91d5" stroke-width="1.51"/><path d="M720,-209L777,-87L888,-205Z" fill="#a9908c" stroke="#a9908c" stroke-width="1.51"/><path d="M727,738L759,818L890,724Z" fill="#87aed0" stroke="#87aed0" stroke-width="1.51"/><path d="M831,-4L727,82L893,117Z" fill="#72a9c6" stroke="#72a9c6" stroke-width="1.51"/><path d="M638,640L727,738L778,494Z" fill="#6dc3cd" stroke="#6dc3cd" stroke-width="1.51"/><path d="M733,348L778,494L843,355Z" fill="#57c8cd" stroke="#57c8cd" stroke-width="1.51"/><path d="M740,292L733,348L843,355Z" fill="#57c1d0" stroke="#57c1d0" stroke-width="1.51"/><path d="M777,-87L727,82L831,-4Z" fill="#87a0b6" stroke="#87a0b6" stroke-width="1.51"/><path d="M590,387L595,485L733,348Z" fill="#57bfd1" stroke="#57bfd1" stroke-width="1.51"/><path d="M727,82L566,189L740,292Z" fill="#55acd8" stroke="#55acd8" stroke-width="1.51"/><path d="M579,793L577,997L759,818Z" fill="#938ed8" stroke="#938ed8" stroke-width="1.51"/><path d="M759,818L577,997L774,999Z" fill="#9b85d9" stroke="#9b85d9" stroke-width="1.51"/><path d="M633,1094L761,1158L774,999Z" fill="#9682dd" stroke="#9682dd" stroke-width="1.51"/><path d="M720,-209L600,-76L777,-87Z" fill="#a18d9a" stroke="#a18d9a" stroke-width="1.51"/><path d="M620,47L727,82L777,-87Z" fill="#819cbc" stroke="#819cbc" stroke-width="1.51"/><path d="M600,-76L620,47L777,-87Z" fill="#8e94b0" stroke="#8e94b0" stroke-width="1.51"/><path d="M733,348L595,485L778,494Z" fill="#57c7ce" stroke="#57c7ce" stroke-width="1.51"/><path d="M595,485L638,640L778,494Z" fill="#56cfca" stroke="#56cfca" stroke-width="1.51"/><path d="M577,997L633,1094L774,999Z" fill="#987edd" stroke="#987edd" stroke-width="1.51"/><path d="M585,1275L738,1288L761,1158Z" fill="#8d7fe4" stroke="#8d7fe4" stroke-width="1.51"/><path d="M633,1094L585,1275L761,1158Z" fill="#8f7de2" stroke="#8f7de2" stroke-width="1.51"/><path d="M727,738L579,793L759,818Z" fill="#89a3d3" stroke="#89a3d3" stroke-width="1.51"/><path d="M620,47L566,189L727,82Z" fill="#5ea1d6" stroke="#5ea1d6" stroke-width="1.51"/><path d="M590,387L733,348L740,292Z" fill="#57bcd2" stroke="#57bcd2" stroke-width="1.51"/><path d="M566,189L590,387L740,292Z" fill="#56b2d5" stroke="#56b2d5" stroke-width="1.51"/><path d="M637,-250L600,-76L720,-209Z" fill="#a9848d" stroke="#a9848d" stroke-width="1.51"/><path d="M638,640L579,793L727,738Z" fill="#80abd2" stroke="#80abd2" stroke-width="1.51"/><path d="M600,-76L484,-9L620,47Z" fill="#868fb9" stroke="#868fb9" stroke-width="1.51"/><path d="M453,1088L585,1275L633,1094Z" fill="#8d75e4" stroke="#8d75e4" stroke-width="1.51"/><path d="M419,-260L600,-76L637,-250Z" fill="#aa7a8c" stroke="#aa7a8c" stroke-width="1.51"/><path d="M389,739L579,793L638,640Z" fill="#7fa3d5" stroke="#7fa3d5" stroke-width="1.51"/><path d="M413,555L389,739L638,640Z" fill="#70aed4" stroke="#70aed4" stroke-width="1.51"/><path d="M595,485L413,555L638,640Z" fill="#5dc3cf" stroke="#5dc3cf" stroke-width="1.51"/><path d="M460,137L566,189L620,47Z" fill="#529cdd" stroke="#529cdd" stroke-width="1.51"/><path d="M577,997L453,1088L633,1094Z" fill="#9376e0" stroke="#9376e0" stroke-width="1.51"/><path d="M414,814L577,997L579,793Z" fill="#9086db" stroke="#9086db" stroke-width="1.51"/><path d="M566,189L393,198L590,387Z" fill="#54a7da" stroke="#54a7da" stroke-width="1.51"/><path d="M484,-9L460,137L620,47Z" fill="#7094cc" stroke="#7094cc" stroke-width="1.51"/><path d="M453,1088L461,1312L585,1275Z" fill="#8770e8" stroke="#8770e8" stroke-width="1.51"/><path d="M393,198L483,440L590,387Z" fill="#55aed7" stroke="#55aed7" stroke-width="1.51"/><path d="M483,440L413,555L595,485Z" fill="#56bed1" stroke="#56bed1" stroke-width="1.51"/><path d="M590,387L483,440L595,485Z" fill="#57bcd2" stroke="#57bcd2" stroke-width="1.51"/><path d="M419,-260L484,-9L600,-76Z" fill="#9c80a1" stroke="#9c80a1" stroke-width="1.51"/><path d="M414,814L385,1022L577,997Z" fill="#9571df" stroke="#9571df" stroke-width="1.51"/><path d="M389,739L414,814L579,793Z" fill="#8593d9" stroke="#8593d9" stroke-width="1.51"/><path d="M393,198L339,368L483,440Z" fill="#54a7da" stroke="#54a7da" stroke-width="1.51"/><path d="M385,1022L453,1088L577,997Z" fill="#916fe2" stroke="#916fe2" stroke-width="1.51"/><path d="M460,137L393,198L566,189Z" fill="#509cde" stroke="#509cde" stroke-width="1.51"/><path d="M300,650L389,739L413,555Z" fill="#6fa6d7" stroke="#6fa6d7" stroke-width="1.51"/><path d="M256,-192L256,-104L419,-260Z" fill="#ab698b" stroke="#ab698b" stroke-width="1.51"/><path d="M330,1132L328,1235L453,1088Z" fill="#8766e8" stroke="#8766e8" stroke-width="1.51"/><path d="M328,1235L85,1345L461,1312Z" fill="#8c5ee2" stroke="#8c5ee2" stroke-width="1.51"/><path d="M453,1088L328,1235L461,1312Z" fill="#8569e9" stroke="#8569e9" stroke-width="1.51"/><path d="M339,368L413,555L483,440Z" fill="#56b4d5" stroke="#56b4d5" stroke-width="1.51"/><path d="M419,-260L256,-104L484,-9Z" fill="#9c76a2" stroke="#9c76a2" stroke-width="1.51"/><path d="M297,68L460,137L484,-9Z" fill="#6b8dd0" stroke="#6b8dd0" stroke-width="1.51"/><path d="M256,-104L297,68L484,-9Z" fill="#867fbb" stroke="#867fbb" stroke-width="1.51"/><path d="M310,229L339,368L393,198Z" fill="#569ddb" stroke="#569ddb" stroke-width="1.51"/><path d="M301,828L385,1022L414,814Z" fill="#8e76df" stroke="#8e76df" stroke-width="1.51"/><path d="M125,-254L256,-192L419,-260Z" fill="#b45e78" stroke="#b45e78" stroke-width="1.51"/><path d="M297,68L393,198L460,137Z" fill="#4c92e2" stroke="#4c92e2" stroke-width="1.51"/><path d="M307,590L300,650L413,555Z" fill="#6badd2" stroke="#6badd2" stroke-width="1.51"/><path d="M385,1022L330,1132L453,1088Z" fill="#8c69e5" stroke="#8c69e5" stroke-width="1.51"/><path d="M301,828L292,1020L385,1022Z" fill="#9964db" stroke="#9964db" stroke-width="1.51"/><path d="M339,368L307,590L413,555Z" fill="#59b5d3" stroke="#59b5d3" stroke-width="1.51"/><path d="M389,739L301,828L414,814Z" fill="#848adc" stroke="#848adc" stroke-width="1.51"/><path d="M292,1020L330,1132L385,1022Z" fill="#9164e1" stroke="#9164e1" stroke-width="1.51"/><path d="M297,68L310,229L393,198Z" fill="#5792dc" stroke="#5792dc" stroke-width="1.51"/><path d="M300,650L301,828L389,739Z" fill="#8492d5" stroke="#8492d5" stroke-width="1.51"/><path d="M185,983L292,1020L301,828Z" fill="#a25fcf" stroke="#a25fcf" stroke-width="1.51"/><path d="M300,650L108,713L301,828Z" fill="#948cc4" stroke="#948cc4" stroke-width="1.51"/><path d="M112,405L92,523L307,590Z" fill="#88a9b3" stroke="#88a9b3" stroke-width="1.51"/><path d="M115,1121L328,1235L330,1132Z" fill="#995bd7" stroke="#995bd7" stroke-width="1.51"/><path d="M112,405L307,590L339,368Z" fill="#76a9c3" stroke="#76a9c3" stroke-width="1.51"/><path d="M310,229L158,274L339,368Z" fill="#6f99cc" stroke="#6f99cc" stroke-width="1.51"/><path d="M158,274L112,405L339,368Z" fill="#809bbe" stroke="#809bbe" stroke-width="1.51"/><path d="M297,68L116,84L310,229Z" fill="#7187cd" stroke="#7187cd" stroke-width="1.51"/><path d="M292,1020L115,1121L330,1132Z" fill="#9f5bd2" stroke="#9f5bd2" stroke-width="1.51"/><path d="M116,84L158,274L310,229Z" fill="#7d8bc2" stroke="#7d8bc2" stroke-width="1.51"/><path d="M115,1121L85,1345L328,1235Z" fill="#a252cb" stroke="#a252cb" stroke-width="1.51"/><path d="M185,983L115,1121L292,1020Z" fill="#a855c8" stroke="#a855c8" stroke-width="1.51"/><path d="M256,-104L119,-35L297,68Z" fill="#9a75a4" stroke="#9a75a4" stroke-width="1.51"/><path d="M106,835L185,983L301,828Z" fill="#a768c2" stroke="#a768c2" stroke-width="1.51"/><path d="M108,713L106,835L301,828Z" fill="#a47abb" stroke="#a47abb" stroke-width="1.51"/><path d="M92,523L300,650L307,590Z" fill="#83a8be" stroke="#83a8be" stroke-width="1.51"/><path d="M119,-35L116,84L297,68Z" fill="#9479ac" stroke="#9479ac" stroke-width="1.51"/><path d="M92,523L108,713L300,650Z" fill="#959bb4" stroke="#959bb4" stroke-width="1.51"/><path d="M256,-192L125,-254L256,-104Z" fill="#b3617c" stroke="#b3617c" stroke-width="1.51"/><path d="M125,-254L119,-35L256,-104Z" fill="#b06381" stroke="#b06381" stroke-width="1.51"/><path d="M92,523L31,589L108,713Z" fill="#a098a4" stroke="#a098a4" stroke-width="1.51"/><path d="M-12,-235L119,-35L125,-254Z" fill="#bb5668" stroke="#bb5668" stroke-width="1.51"/><path d="M116,84L26,222L158,274Z" fill="#8e83b2" stroke="#8e83b2" stroke-width="1.51"/><path d="M36,955L115,1121L185,983Z" fill="#b44cb9" stroke="#b44cb9" stroke-width="1.51"/><path d="M106,835L36,955L185,983Z" fill="#b554b5" stroke="#b554b5" stroke-width="1.51"/><path d="M26,222L-27,376L112,405Z" fill="#9a8da2" stroke="#9a8da2" stroke-width="1.51"/><path d="M-15,1131L85,1345L115,1121Z" fill="#b244b6" stroke="#b244b6" stroke-width="1.51"/><path d="M26,222L112,405L158,274Z" fill="#918eae" stroke="#918eae" stroke-width="1.51"/><path d="M-15,1131L-18,1342L85,1345Z" fill="#b43eb2" stroke="#b43eb2" stroke-width="1.51"/><path d="M31,589L20,719L108,713Z" fill="#aa8aa2" stroke="#aa8aa2" stroke-width="1.51"/><path d="M20,719L106,835L108,713Z" fill="#ad7baa" stroke="#ad7baa" stroke-width="1.51"/><path d="M36,955L-15,1131L115,1121Z" fill="#b843af" stroke="#b843af" stroke-width="1.51"/><path d="M-25,135L26,222L116,84Z" fill="#967aaa" stroke="#967aaa" stroke-width="1.51"/><path d="M-11,-11L116,84L119,-35Z" fill="#a56d94" stroke="#a56d94" stroke-width="1.51"/><path d="M-12,-235L-11,-11L119,-35Z" fill="#b75c74" stroke="#b75c74" stroke-width="1.51"/><path d="M-27,376L92,523L112,405Z" fill="#999aa2" stroke="#999aa2" stroke-width="1.51"/><path d="M-39,852L36,955L106,835Z" fill="#bb58a7" stroke="#bb58a7" stroke-width="1.51"/><path d="M-11,-11L-25,135L116,84Z" fill="#a2709a" stroke="#a2709a" stroke-width="1.51"/><path d="M20,719L-39,852L106,835Z" fill="#b66ca3" stroke="#b66ca3" stroke-width="1.51"/><path d="M-12,-235L-109,-87L-11,-11Z" fill="#bd5263" stroke="#bd5263" stroke-width="1.51"/><path d="M-27,376L-127,492L31,589Z" fill="#a6988f" stroke="#a6988f" stroke-width="1.51"/><path d="M-27,376L31,589L92,523Z" fill="#9e9e9b" stroke="#9e9e9b" stroke-width="1.51"/><path d="M-150,1154L-18,1342L-15,1131Z" fill="#bd31a3" stroke="#bd31a3" stroke-width="1.51"/><path d="M-162,292L-27,376L26,222Z" fill="#a58394" stroke="#a58394" stroke-width="1.51"/><path d="M-188,729L20,719L31,589Z" fill="#b58192" stroke="#b58192" stroke-width="1.51"/><path d="M-210,963L-15,1131L36,955Z" fill="#c4329b" stroke="#c4329b" stroke-width="1.51"/><path d="M-39,852L-210,963L36,955Z" fill="#c63e97" stroke="#c63e97" stroke-width="1.51"/><path d="M-127,492L-188,729L31,589Z" fill="#b38d86" stroke="#b38d86" stroke-width="1.51"/><path d="M-210,963L-150,1154L-15,1131Z" fill="#c72593" stroke="#c72593" stroke-width="1.51"/><path d="M-25,135L-162,292L26,222Z" fill="#a47a97" stroke="#a47a97" stroke-width="1.51"/><path d="M-150,1154L-180,1325L-18,1342Z" fill="#c0269b" stroke="#c0269b" stroke-width="1.51"/><path d="M-188,729L-39,852L20,719Z" fill="#bd6c91" stroke="#bd6c91" stroke-width="1.51"/><path d="M-152,845L-210,963L-39,852Z" fill="#c9428b" stroke="#c9428b" stroke-width="1.51"/><path d="M-188,729L-152,845L-39,852Z" fill="#c45b89" stroke="#c45b89" stroke-width="1.51"/><path d="M-167,144L-162,292L-25,135Z" fill="#aa728e" stroke="#aa728e" stroke-width="1.51"/><path d="M-165,-164L-109,-87L-12,-235Z" fill="#c4454f" stroke="#c4454f" stroke-width="1.51"/><path d="M-167,144L-25,135L-11,-11Z" fill="#a86b8f" stroke="#a86b8f" stroke-width="1.51"/><path d="M-109,-87L-167,144L-11,-11Z" fill="#b45f79" stroke="#b45f79" stroke-width="1.51"/><path d="M-199,443L-127,492L-27,376Z" fill="#ae8d84" stroke="#ae8d84" stroke-width="1.51"/><path d="M-162,292L-199,443L-27,376Z" fill="#ae8684" stroke="#ae8684" stroke-width="1.51"/><path d="M-199,443L-188,729L-127,492Z" fill="#b69277" stroke="#b69277" stroke-width="1.51"/><path d="M-165,-164L-167,144L-109,-87Z" fill="#bd5364" stroke="#bd5364" stroke-width="1.51"/><path d="M-210,963L-180,1325L-150,1154Z" fill="#c9148c" stroke="#c9148c" stroke-width="1.51"/><path d="M-188,729L-210,963L-152,845Z" fill="#cb4a82" stroke="#cb4a82" stroke-width="1.51"/><path d="M-167,144L-199,443L-162,292Z" fill="#b17980" stroke="#b17980" stroke-width="1.51"/><path d="M-199,443L-167,144L-165,-164Z" fill="#ae6885" stroke="#ae6885" stroke-width="1.51"/><path d="M-199,443L-210,963L-188,729Z" fill="#c46d79" stroke="#c46d79" stroke-width="1.51"/></svg>